/vscmnt/brussel_pixiu_data/_data_brussel/112/vsc11236/PredSimResults/SUBJ10_Falisse2022/weightedWalking/worker_01.mot
version=1
nRows=4
nColumns=124
inDegrees=yes
endheader
                time	         pelvis_tilt	         pelvis_list	     pelvis_rotation	           pelvis_tx	           pelvis_ty	           pelvis_tz	       hip_flexion_r	     hip_adduction_r	      hip_rotation_r	        knee_angle_r	       ankle_angle_r	    subtalar_angle_r	         mtp_angle_r	       hip_flexion_l	     hip_adduction_l	      hip_rotation_l	        knee_angle_l	       ankle_angle_l	    subtalar_angle_l	         mtp_angle_l	    lumbar_extension	      lumbar_bending	     lumbar_rotation	          arm_flex_r	           arm_add_r	           arm_rot_r	        elbow_flex_r	          arm_flex_l	           arm_add_l	           arm_rot_l	        elbow_flex_l	glut_med1_r/activation	glut_med2_r/activation	glut_med3_r/activation	glut_min1_r/activation	glut_min2_r/activation	glut_min3_r/activation	semimem_r/activation	semiten_r/activation	bifemlh_r/activation	bifemsh_r/activation	    sar_r/activation	add_long_r/activation	add_brev_r/activation	add_mag1_r/activation	add_mag2_r/activation	add_mag3_r/activation	    tfl_r/activation	   pect_r/activation	   grac_r/activation	glut_max1_r/activation	glut_max2_r/activation	glut_max3_r/activation	iliacus_r/activation	  psoas_r/activation	quad_fem_r/activation	    gem_r/activation	   peri_r/activation	rect_fem_r/activation	vas_med_r/activation	vas_int_r/activation	vas_lat_r/activation	med_gas_r/activation	lat_gas_r/activation	 soleus_r/activation	tib_post_r/activation	flex_dig_r/activation	flex_hal_r/activation	tib_ant_r/activation	per_brev_r/activation	per_long_r/activation	per_tert_r/activation	ext_dig_r/activation	ext_hal_r/activation	glut_med1_l/activation	glut_med2_l/activation	glut_med3_l/activation	glut_min1_l/activation	glut_min2_l/activation	glut_min3_l/activation	semimem_l/activation	semiten_l/activation	bifemlh_l/activation	bifemsh_l/activation	    sar_l/activation	add_long_l/activation	add_brev_l/activation	add_mag1_l/activation	add_mag2_l/activation	add_mag3_l/activation	    tfl_l/activation	   pect_l/activation	   grac_l/activation	glut_max1_l/activation	glut_max2_l/activation	glut_max3_l/activation	iliacus_l/activation	  psoas_l/activation	quad_fem_l/activation	    gem_l/activation	   peri_l/activation	rect_fem_l/activation	vas_med_l/activation	vas_int_l/activation	vas_lat_l/activation	med_gas_l/activation	lat_gas_l/activation	 soleus_l/activation	tib_post_l/activation	flex_dig_l/activation	flex_hal_l/activation	tib_ant_l/activation	per_brev_l/activation	per_long_l/activation	per_tert_l/activation	ext_dig_l/activation	ext_hal_l/activation	 ercspn_r/activation	 ercspn_l/activation	 intobl_r/activation	 intobl_l/activation	 extobl_r/activation	 extobl_l/activation	
          0.00000000	         -6.07148304	         -1.41172188	          2.99916218	          0.00000000	          0.82406956	         -0.00427189	         33.87172269	          3.61577963	          3.21454467	        -12.22534284	         13.77627091	         -6.58231658	          0.23686025	        -14.97210268	          1.84077511	         10.49945286	         -7.89461660	          3.54016022	         -2.71350207	         30.40863264	         -3.29293509	          0.07800090	         -1.49698763	        -24.40935752	        -14.12262194	         15.26381435	         18.66771751	         28.34325990	        -13.51151707	         19.38752418	         59.62796941	          0.02480015	          0.01000019	          0.01000012	          0.01000238	          0.01000037	          0.01118923	          0.11699017	          0.03429206	          0.03188089	          0.01000026	          0.01418278	          0.02399650	          0.10018165	          0.14710111	          0.09287628	          0.04233722	          0.01000107	          0.01689742	          0.06578582	          0.04107723	          0.01987192	          0.03852989	          0.01689041	          0.01689044	          0.12243396	          0.01110956	          0.01578012	          0.01688830	          0.07403724	          0.07823213	          0.07427611	          0.01000001	          0.01000005	          0.01000001	          0.01975728	          0.01418287	          0.01418296	          0.29997856	          0.26095096	          0.16946987	          0.10684943	          0.36277767	          0.16568202	          0.12765089	          0.08138714	          0.06239240	          0.16886461	          0.14281104	          0.11048334	          0.01908194	          0.01191072	          0.01315849	          0.02616030	          0.06625789	          0.05265654	          0.01501425	          0.01621765	          0.01194179	          0.01000738	          0.19836615	          0.02653998	          0.02011612	          0.02011379	          0.01418396	          0.01325146	          0.24519309	          0.32669378	          0.02308389	          0.02016574	          0.08378772	          0.08396475	          0.01000052	          0.01000061	          0.01000101	          0.17559402	          0.24228030	          0.27370628	          0.26910569	          0.33926623	          0.33886571	          0.01000004	          0.01000003	          0.01000001	          0.01000008	          0.01000002	          0.01000020	          0.03663413	          0.01000001	          0.02259554	          0.01418522	          0.07026659	          0.01000002	
          0.01145481	         -6.05678265	         -1.66126351	          3.27410005	          0.01585690	          0.82267374	         -0.00405513	         33.04017078	          3.97485389	          3.49060478	        -12.60337468	         13.05266845	         -6.97539578	          0.22547095	        -14.77493619	          1.60412491	         10.03545674	        -10.21648545	          3.36184867	         -2.14824984	         31.42624832	         -3.16869826	          0.54473043	         -1.55106471	        -25.72061344	        -14.09492352	         15.51726606	         18.71135976	         28.34727896	        -13.52636805	         19.35922153	         61.60137310	          0.13232882	          0.01000007	          0.01000013	          0.01000013	          0.01000012	          0.18402155	          0.09823565	          0.02879489	          0.04141315	          0.02830413	          0.01190952	          0.02014970	          0.08412171	          0.12351959	          0.07798746	          0.03555024	          0.01000051	          0.01418902	          0.05524006	          0.14145335	          0.02069187	          0.03235329	          0.01418275	          0.01418277	          0.17519537	          0.02401764	          0.13580770	          0.01418097	          0.06216845	          0.06569087	          0.06236903	          0.01689028	          0.01521112	          0.01510619	          0.01659002	          0.01190925	          0.01190933	          0.33007168	          0.24809922	          0.14230245	          0.08972145	          0.45177370	          0.13912183	          0.20705836	          0.06834009	          0.05239037	          0.14179844	          0.11991724	          0.09277193	          0.01602408	          0.01000166	          0.01104922	          0.02196659	          0.05563621	          0.09485381	          0.01260747	          0.01361802	          0.01002817	          0.01000042	          0.16656640	          0.02228661	          0.01689142	          0.01688953	          0.01191040	          0.01112731	          0.20588656	          0.27432200	          0.01938335	          0.01693304	          0.07035584	          0.07050449	          0.01000004	          0.01000004	          0.01000003	          0.14744481	          0.20344071	          0.26095905	          0.23569068	          0.28488200	          0.29030738	          0.01000003	          0.01000003	          0.01000002	          0.01000006	          0.01000002	          0.01000017	          0.03076138	          0.01948845	          0.02395519	          0.01191121	          0.05900226	          0.01000002	
          0.02290963	         -6.04037444	         -1.90496506	          3.53073064	          0.03174736	          0.82130241	         -0.00380735	         32.15388164	          4.31750400	          3.77561196	        -12.92623931	         12.32707823	         -7.36778858	          0.22780089	        -14.45468072	          1.36942203	          9.56760368	        -12.73944058	          3.13449306	         -1.57905526	         32.15895829	         -3.04886563	          1.01166717	         -1.59820943	        -26.83756814	        -14.04310724	         15.93973377	         18.51328862	         28.25474683	        -13.53953503	         19.30017293	         63.38332534	          0.19337296	          0.19056038	          0.20827205	          0.09031275	          0.13232818	          0.15452149	          0.08248765	          0.04166228	          0.03477429	          0.02376679	          0.01000038	          0.01691956	          0.07063632	          0.10371847	          0.07586168	          0.04920399	          0.01000014	          0.01191460	          0.05431202	          0.15627543	          0.08525889	          0.05560634	          0.01190914	          0.01190916	          0.14711019	          0.02016761	          0.11403668	          0.01190765	          0.05317362	          0.06451191	          0.06990941	          0.01418263	          0.01277265	          0.01268454	          0.01393050	          0.01000011	          0.01000018	          0.41221293	          0.28542874	          0.15279856	          0.37170290	          0.47315809	          0.26556528	          0.20984917	          0.05738460	          0.04399175	          0.17876142	          0.10069352	          0.07789981	          0.02361799	          0.01000031	          0.01000026	          0.01844517	          0.04671728	          0.10545359	          0.01058650	          0.01143517	          0.01000143	          0.01096223	          0.13986444	          0.01871407	          0.01418364	          0.01418219	          0.01000261	          0.01000090	          0.17288121	          0.23034588	          0.01627605	          0.01421857	          0.05907721	          0.05920255	          0.02282215	          0.02225958	          0.01463847	          0.12380815	          0.17082744	          0.24015035	          0.21931065	          0.25705039	          0.26959988	          0.01000002	          0.01000043	          0.01000140	          0.01000015	          0.01000004	          0.01000018	          0.05985247	          0.03700022	          0.02011501	          0.01000174	          0.04954370	          0.01000000	
          0.03436444	         -6.02340082	         -2.13726159	          3.76777728	          0.04751091	          0.82015680	         -0.00352430	         31.31202199	          4.66615956	          4.06074731	        -13.27992846	         11.50132906	         -7.74993286	          0.22284236	        -14.00050196	          1.13626938	          9.10723679	        -15.44211539	          2.83738887	         -0.99635123	         32.47031051	         -2.94178599	          1.47231212	         -1.63908655	        -27.72440947	        -13.96473245	         16.49437496	         18.09176756	         28.08621170	        -13.54241797	         19.22788652	         64.89973471	          0.24975030	          0.26474203	          0.27274606	          0.09406665	          0.11114972	          0.13557096	          0.06926418	          0.04514606	          0.03226094	          0.01995679	          0.01000016	          0.01420724	          0.05931275	          0.08709167	          0.07365583	          0.06250311	          0.01000015	          0.01000492	          0.04560556	          0.18677364	          0.11487780	          0.06960744	          0.01000003	          0.01000004	          0.12352735	          0.01693481	          0.09575573	          0.01000001	          0.11125645	          0.11463213	          0.10822658	          0.01190904	          0.01072509	          0.01065110	          0.01344030	          0.01076074	          0.01000500	          0.47574528	          0.29909799	          0.15657365	          0.41784372	          0.51302256	          0.27607280	          0.20738336	          0.04818537	          0.03693950	          0.16152704	          0.08455152	          0.06541182	          0.03150156	          0.01000066	          0.01000113	          0.01548826	          0.03922812	          0.11020242	          0.06477389	          0.01000598	          0.01006371	          0.02395198	          0.11744302	          0.01571461	          0.01190997	          0.01190890	          0.01000088	          0.01000090	          0.14516689	          0.19341949	          0.01366687	          0.01193926	          0.04960663	          0.04971189	          0.02879798	          0.02830131	          0.02426408	          0.10396065	          0.14344236	          0.21373468	          0.20583936	          0.21584404	          0.23014659	          0.01000003	          0.01000045	          0.01327066	          0.01000019	          0.01000005	          0.01000021	          0.06961921	          0.05869539	          0.01689041	          0.01000000	          0.04160143	          0.01000000	
